<svg xmlns="http://www.w3.org/2000/svg" version="1.1" xmlns:xlink="http://www.w3.org/1999/xlink" xmlns:svgjs="http://svgjs.dev/svgjs" width="100%" height="100%" viewBox="0 0 1000 600"><rect width="1000" height="600" x="0" y="0" fill=" #e3f2fd;&quot;"/><g><rect width="333.3333333333333" height="333.3333333333333" rx="13.333333333333334" ry="13.333333333333334" y="219.13824326372148" fill="grey" transform="matrix(0.634788387339939,0,0,0.6347883873399391,0,55.09552604016258)" x="196.916015625"/><path d="M336.78003294590496 448.2110774356431L336.78003294590496 457.3675375261243L280.5078073412976 457.3675375261243L280.5078073412976 448.2110774356431L293.2201742630336 447.35173328475656Q295.5018811464221 447.1443053862667 296.59828575272564 445.6923100968376Q297.6946903590292 444.2403148074086 297.6946903590292 442.66978929027107L297.6946903590292 442.66978929027107L297.6946903590292 328.9104032470444Q297.6946903590292 327.33987772990685 296.59828575272564 325.9471475543321Q295.5018811464221 324.5544173787573 293.2201742630336 324.43588715104875L293.2201742630336 324.43588715104875L280.5078073412976 323.60617555708933L280.5078073412976 314.24228756811834L336.78003294590496 314.24228756811834L336.78003294590496 323.60617555708933L323.7417078979706 324.43588715104875Q321.5488986853635 324.5544173787573 320.42286152213285 325.9471475543321Q319.26719180197506 327.33987772990685 319.26719180197506 328.9104032470444L319.26719180197506 328.9104032470444L319.26719180197506 442.66978929027107Q319.26719180197506 444.2403148074086 320.42286152213285 445.6923100968376Q321.5488986853635 447.1443053862667 323.7417078979706 447.35173328475656L323.7417078979706 447.35173328475656L336.78003294590496 448.2110774356431ZM446.65755403167844 417.2450554467992L446.65755403167844 417.2450554467992Q446.65755403167844 428.001673611345 440.8792054308894 437.9878452957856Q435.1008568301004 448.0036495371533 422.6551829207085 454.4042818334119Q410.20950901131664 460.8049141296705 390.11863541472707 460.8049141296705L390.11863541472707 460.8049141296705Q378.6508358839303 460.8049141296705 370.11665948891874 458.8195328155533Q361.5528505369801 456.83415150143605 356.8709065424946 454.8784027442459Q352.1889625480091 452.8930214301286 352.1889625480091 452.8930214301286L352.1889625480091 452.8930214301286L352.1889625480091 415.0818787911192L365.612510835996 415.0818787911192L368.4276037440727 439.2324126867248Q368.6350316425626 440.47698007766394 369.79070136272037 441.9586079240201Q370.9463710828782 443.4106032134492 371.9835105753275 443.9143566812102L371.9835105753275 443.9143566812102Q372.4872640430886 444.0328869089188 378.05818474538785 446.4331240200157Q383.6587380046141 448.8333611311127 393.55601201827335 448.8333611311127L393.55601201827335 448.8333611311127Q407.18698820475015 448.8333611311127 416.04712272596 442.16603582250997Q424.90725724716987 435.4987105139072 424.90725724716987 423.6160551861307L424.90725724716987 423.6160551861307Q424.90725724716987 417.15615777601784 421.29208530206085 412.2964184399696Q417.7065459138789 407.4663116608485 411.9874624269441 403.7029769311038Q406.2387463830821 399.9692747582863 399.74921641604215 396.8874888378654Q393.230053892075 393.8057029174446 387.3924401774317 391.020242566295L387.3924401774317 391.020242566295Q378.6508358839303 386.8420520395706 371.1537989813681 382.1008429312309Q363.65676207880585 377.3596338228911 359.0637157551017 370.36635038809004Q354.4706694313976 363.402699510216 354.4706694313976 352.5571836748889L354.4706694313976 352.5571836748889Q354.4706694313976 339.84481675315294 360.93056684151054 330.48092876418195Q367.39046425162337 321.11704077521097 378.53230565622175 315.9609758698915Q389.6741470608202 310.80491096457206 403.7496116012038 310.80491096457206L403.7496116012038 310.80491096457206Q415.2174111320005 310.80491096457206 423.9590154255019 313.0273527341063Q432.7006197190034 315.2794270605676 439.4864752553146 317.47223627317476L439.4864752553146 317.47223627317476L441.35332634172335 318.09451996864436L441.35332634172335 351.3126162839497L429.1743454446757 351.3126162839497L425.9443967396192 330.8957845611617Q425.73696884112934 329.4437892717326 424.6405642348258 328.7622404624088Q423.5441596285222 328.08069165308495 422.59591780685423 327.13244983141703L422.59591780685423 327.13244983141703Q421.7662062128948 326.51016613594743 417.4398529015348 324.43588715104875Q413.1134995901748 322.3616081661501 404.0755697274021 322.3616081661501L404.0755697274021 322.3616081661501Q391.2446725779577 322.3616081661501 383.86616590310405 329.5030543855869Q376.4580266713232 336.61486804809647 376.4580266713232 347.4603838834236L376.4580266713232 347.4603838834236Q376.4580266713232 357.23912766937434 384.103226358521 363.6990250794873Q391.77805860264596 370.1589224896002 406.1498487123008 375.7002106349722L406.1498487123008 375.7002106349722Q425.52954094263947 382.9898196390446 436.1083637656225 392.0870146156714Q446.65755403167844 401.21384214922546 446.65755403167844 417.2450554467992Z " fill="black" transform="matrix(0.634788387339939,0,0,0.6347883873399391,0,55.09552604016258)"/><path d="M656.7744962689075 416.27117116606297L656.7744962689075 423.29922304548546L613.5826822914859 423.29922304548546L613.5826822914859 416.27117116606297L623.3400747066064 415.6115805366026Q625.091401550346 415.45236900535355 625.9329482155196 414.33788828661017Q626.774494880693 413.2234075678668 626.774494880693 412.01794883126684L626.774494880693 412.01794883126684L626.774494880693 324.7017961933934Q626.774494880693 323.49633745679347 625.9329482155196 322.4273457469784Q625.091401550346 321.35835403716334 623.3400747066064 321.2673760193067L623.3400747066064 321.2673760193067L613.5826822914859 320.6305298943105L613.5826822914859 313.443266483639L656.7744962689075 313.443266483639L656.7744962689075 320.6305298943105L646.7669143046812 321.2673760193067Q645.0838209743342 321.35835403716334 644.2195298046964 322.4273457469784Q643.3324941305946 323.49633745679347 643.3324941305946 324.7017961933934L643.3324941305946 324.7017961933934L643.3324941305946 412.01794883126684Q643.3324941305946 413.2234075678668 644.2195298046964 414.33788828661017Q645.0838209743342 415.45236900535355 646.7669143046812 415.6115805366026L646.7669143046812 415.6115805366026L656.7744962689075 416.27117116606297ZM751.7555469111995 416.90801729105914L751.7555469111995 423.29922304548546L715.6145293176646 423.29922304548546L715.6145293176646 416.90801729105914L722.483369665838 416.430382697312Q723.9390179515436 416.27117116606297 724.9397761479662 415.2931574741045Q725.9405343443889 414.33788828661017 725.9405343443889 412.81400648751213L725.9405343443889 412.81400648751213L725.9405343443889 370.2135496261584Q725.9405343443889 362.4576736038831 722.324158134589 358.4091518092643Q718.7305264292531 354.38337451910974 710.1785927507326 354.38337451910974L710.1785927507326 354.38337451910974Q705.538713840046 354.38337451910974 700.9443239382875 355.70255577803044Q696.3499340365292 357.02173703695115 692.1876897195897 359.09148694318884L692.1876897195897 359.09148694318884L692.1876897195897 412.81400648751213Q692.1876897195897 416.18019314820634 695.6221098936763 416.430382697312L695.6221098936763 416.430382697312L702.4909502418498 416.90801729105914L702.4909502418498 423.29922304548546L665.485641478677 423.29922304548546L665.485641478677 416.90801729105914L673.4689625455939 416.430382697312Q676.9033827196806 416.18019314820634 676.9033827196806 412.81400648751213L676.9033827196806 412.81400648751213L676.9033827196806 355.9754898316002L665.485641478677 355.9754898316002L665.485641478677 350.60778677806076L685.4780609026652 344.3757925548835L692.1876897195897 344.3757925548835L692.1876897195897 352.5410696575135Q699.0565300677631 348.6062703852155 706.2892824873629 345.4902732736269Q713.5447794114269 342.3742761620383 719.2081610230003 342.3742761620383L719.2081610230003 342.3742761620383Q729.9208226256152 342.3742761620383 735.5159707237962 349.06116047449854Q741.1111188219772 355.7253002824946 741.1111188219772 367.64342062170937L741.1111188219772 367.64342062170937L741.1111188219772 412.81400648751213Q741.1111188219772 414.33788828661017 742.1118770183998 415.2931574741045Q743.1126352148224 416.27117116606297 744.568283500528 416.430382697312L744.568283500528 416.430382697312L751.7555469111995 416.90801729105914ZM840.0269687365674 344.3757925548835L840.0269687365674 350.76699830930977L831.3158235267977 351.74501200126826L802.7032369108965 423.29922304548546L792.0588088216741 423.29922304548546L765.6751836432596 351.74501200126826L756.6456153709919 350.76699830930977L756.6456153709919 344.3757925548835L792.8548664779194 344.3757925548835L792.8548664779194 350.76699830930977L785.0307569422516 351.2446329030569Q782.3923944244102 351.4948224521626 782.3923944244102 353.8829954208984L782.3923944244102 353.8829954208984Q782.3923944244102 354.2014184833965 782.5516059556592 354.86100911285683L782.5516059556592 354.86100911285683L800.8609320493003 406.1043776705877L821.0125630045376 354.86100911285683Q821.240008049179 354.38337451910974 821.240008049179 353.81476190750595L821.240008049179 353.81476190750595Q821.240008049179 351.403844434306 818.7608570625866 351.2446329030569L818.7608570625866 351.2446329030569L811.4143821206661 350.76699830930977L811.4143821206661 344.3757925548835L840.0269687365674 344.3757925548835ZM916.3120367093278 405.1491084830934L916.3120367093278 415.1339459428554Q909.4431963611544 419.3871682776516 901.4826197987016 422.3439538579911Q893.522043236249 425.30073943833065 885.2202991068341 425.30073943833065L885.2202991068341 425.30073943833065Q875.3036951604645 425.30073943833065 866.6152944551591 420.8655610678214Q857.9496382543177 416.430382697312 852.5819352007783 407.3780699205801Q847.236976651703 398.34850164831244 847.236976651703 384.67905446535804L847.236976651703 384.67905446535804Q847.236976651703 371.8738984520414 852.1952786248878 362.3666955860265Q857.1535805980725 352.85949272001164 865.8647258078422 347.6055121887929Q874.5758710176117 342.3742761620383 885.6979337005813 342.3742761620383L885.6979337005813 342.3742761620383Q900.9594961960263 342.3742761620383 908.6471387049091 351.858734523589Q916.3120367093278 361.3204483806756 916.3120367093278 375.96790925558844L916.3120367093278 375.96790925558844Q916.3120367093278 376.76396691183373 916.3120367093278 378.08314817075444Q916.3120367093278 379.40232942967515 916.1528251780787 380.51681014841853L916.1528251780787 380.51681014841853L863.0671517587516 380.51681014841853Q863.0671517587516 386.7488043715957 864.3863330176723 392.9580540903088Q865.705514276593 399.14455930455773 868.8215113881816 404.1938392955991Q871.9375084997703 409.22037478217635 877.2142335354532 412.2681383803725Q882.4909585711362 415.2931574741045 890.4060461246604 415.2931574741045L890.4060461246604 415.2931574741045Q897.4568425085471 415.2931574741045 904.1209823165432 412.06343784019515Q910.8078666290033 408.83371820628577 916.3120367093278 405.1491084830934L916.3120367093278 405.1491084830934ZM863.9314429283894 373.17033520649795L899.9359934951394 373.17033520649795L899.9359934951394 369.55395899669804Q899.9359934951394 361.4796599119246 896.0466832317697 355.9754898316002Q892.1801174728641 350.4485752468117 884.0148403702342 350.4485752468117L884.0148403702342 350.4485752468117Q875.9405412854608 350.4485752468117 870.254415169423 356.52135793873987Q864.5910335578498 362.6168851351321 863.9314429283894 373.17033520649795L863.9314429283894 373.17033520649795ZM981.4750419991186 399.5539603849124L981.4750419991186 399.5539603849124Q981.4750419991186 411.6312922553763 973.1732978697038 418.4546435946214Q964.8488092358248 425.30073943833065 950.224092865376 425.30073943833065L950.224092865376 425.30073943833065Q942.6956618877423 425.30073943833065 936.3499451422442 423.7313686303043Q929.9814838922821 422.1847423267421 927.5023329056896 421.13849512139114L927.5023329056896 421.13849512139114L927.5023329056896 399.3947488536634L935.8268215395688 399.3947488536634L937.828337932414 413.3143855857234Q940.3074889190063 414.90650089821395 943.9466096332704 416.3848936883837Q947.5857303475345 417.8632864785535 952.3848207894703 417.8632864785535L952.3848207894703 417.8632864785535Q959.4128726688928 417.8632864785535 963.2566939233341 413.9512317107196Q967.1005151777756 410.0164324384216 967.1005151777756 405.1491084830934L967.1005151777756 405.1491084830934Q967.1005151777756 398.6669247108105 962.460636267089 395.34622705904457Q957.8207573564023 392.0255294072786 949.2688236778816 387.9542631081957L949.2688236778816 387.9542631081957L947.1080957537874 386.9080159028448Q938.1467609949121 382.67753807251285 933.3931595619047 378.08314817075444Q928.6395581288973 373.48875826899604 928.6395581288973 366.11953882261133L928.6395581288973 366.11953882261133Q928.6395581288973 355.179432175355 936.3044561333159 348.7654819164646Q943.9920986421987 342.3742761620383 958.1391804189003 342.3742761620383L958.1391804189003 342.3742761620383Q965.3264438295719 342.3742761620383 970.9670809366812 343.693457420959Q976.6077180437904 345.01263867987973 979.0868690303828 346.1271193986231L979.0868690303828 346.1271193986231L979.0868690303828 365.4826926976151L970.5349353518624 365.4826926976151L969.2612431018699 354.04220695214747Q967.4871717536662 352.7002811887626 964.0527515795794 351.4948224521626Q960.6183314054927 350.2893637155626 956.7745101510513 350.2893637155626L956.7745101510513 350.2893637155626Q950.064881334127 350.2893637155626 946.7896726912893 353.3826163226871Q943.5144640484516 356.4531244253474 943.5144640484516 361.25221486728316L943.5144640484516 361.25221486728316Q943.5144640484516 366.7563849476075 947.4720078252137 370.008849085981Q951.429551601976 373.2385687198904 961.8237901420927 377.9694256484337L961.8237901420927 377.9694256484337Q970.3757238206133 381.88148041626755 975.9253829098659 386.7260598671316Q981.4750419991186 391.54789481353146 981.4750419991186 399.5539603849124ZM1041.6115118023324 413.3143855857234L1041.6115118023324 413.3143855857234L1041.6115118023324 419.8648028713987Q1041.6115118023324 419.8648028713987 1038.541003699672 421.2294731392478Q1035.4704955970117 422.5713989026326 1030.4667046148986 423.93606917048163Q1025.4629136327856 425.30073943833065 1019.5493424721064 425.30073943833065L1019.5493424721064 425.30073943833065Q1010.3605626685896 425.30073943833065 1006.1528293427218 420.9337945812138Q1001.945096016854 416.58959422856105 1001.945096016854 406.900435326833L1001.945096016854 406.900435326833L1001.945096016854 352.5410696575135L991.4826239633448 352.5410696575135L991.4826239633448 347.17336660397405L1002.6729201597068 341.89664156829116L1010.0421396060915 324.54258466214435L1017.2294030167632 324.54258466214435L1017.2294030167632 344.3757925548835L1040.3378195523399 344.3757925548835L1040.3378195523399 352.5410696575135L1017.2294030167632 352.5410696575135L1017.2294030167632 398.28026813492Q1017.2294030167632 408.0376605500405 1020.5046116596009 412.06343784019515Q1023.7798203024383 416.1119596348139 1030.3529820925778 416.1119596348139L1030.3529820925778 416.1119596348139Q1035.1293280300495 416.1119596348139 1038.381792168423 414.70180035803656Q1041.6115118023324 413.3143855857234 1041.6115118023324 413.3143855857234ZM1121.6494230116778 392.50316400102577L1121.6494230116778 392.50316400102577Q1121.6494230116778 400.7594191215124 1117.2142446411683 408.42431712593105Q1112.7790662706589 416.1119596348139 1103.2263743957158 421.0247725990704Q1093.6736825207727 425.9375855633269 1078.2301639896145 425.9375855633269L1078.2301639896145 425.9375855633269Q1069.4507852664524 425.9375855633269 1062.877623476313 424.4137037642288Q1056.3272061906378 422.8898219651307 1052.733574485302 421.3886846704968Q1049.139942779966 419.8648028713987 1049.139942779966 419.8648028713987L1049.139942779966 419.8648028713987L1049.139942779966 390.8428151751428L1059.4432033022263 390.8428151751428L1061.6039312263206 409.37958631342536Q1061.7631427575695 410.3348555009197 1062.6501784316715 411.47208072412724Q1063.5144696013092 412.5865614428706 1064.3332717620185 412.97321801876114L1064.3332717620185 412.97321801876114Q1064.719928337909 413.0641960366178 1068.9958951771694 414.90650089821395Q1073.2718620164296 416.7488057598101 1080.868526507456 416.7488057598101L1080.868526507456 416.7488057598101Q1091.3537430654292 416.7488057598101 1098.1543499002103 411.6312922553763Q1104.9549567349911 406.51377875094244 1104.9549567349911 397.3932324608181L1104.9549567349911 397.3932324608181Q1104.9549567349911 392.4349304876333 1102.1801271903648 388.70483175551266Q1099.4280421502026 384.9974775278561 1095.0383527886215 382.10892546090906Q1090.6259189225764 379.2431178984261 1085.6448724449274 376.87768943415443Q1080.6410814628143 374.5122609698828 1076.1604140833767 372.37427755025266L1076.1604140833767 372.37427755025266Q1069.4507852664524 369.16730242080746 1063.6964256370225 365.5281817065434Q1057.9193215031282 361.8890609922793 1054.416667815649 356.52135793873987Q1050.8912696237057 351.1763993896645 1050.8912696237057 342.85191075578547L1050.8912696237057 342.85191075578547Q1050.8912696237057 333.09451834066493 1055.8495715968904 325.9072549299934Q1060.8078735700751 318.71999151932187 1069.3598072485959 314.76244774255974Q1077.9117409271164 310.8049039657975 1088.7153805475878 310.8049039657975L1088.7153805475878 310.8049039657975Q1097.517503775214 310.8049039657975 1104.2271325921383 312.5107418006088Q1110.9367614090627 314.2393241398843 1116.1452529313533 315.9224174702314L1116.1452529313533 315.9224174702314L1117.5781567125946 316.40005206397853L1117.5781567125946 341.89664156829116L1108.2301653778288 341.89664156829116L1105.7510143912364 326.2256779924915Q1105.5918028599874 325.11119727374813 1104.7502561948138 324.58807367107266Q1103.9087095296402 324.0649500683972 1103.1808853867874 323.3371259255444L1103.1808853867874 323.3371259255444Q1102.5440392617913 322.85949133179724 1099.2233416100253 321.2673760193067Q1095.9026439582594 319.6752607068162 1088.9428255922294 319.6752607068162L1088.9428255922294 319.6752607068162Q1079.1171996637163 319.6752607068162 1073.4310735476788 325.15668628267645Q1067.7676919361052 330.61536735407253 1067.7676919361052 338.93985598795155L1067.7676919361052 338.93985598795155Q1067.7676919361052 346.4455424611212 1073.6357740878561 351.403844434306Q1079.526600744071 356.3621464074908 1090.557685409184 360.61536874228693L1090.557685409184 360.61536874228693Q1105.4325913287382 366.2105168404679 1113.55237942244 373.1930797109621Q1121.6494230116778 380.1983870859204 1121.6494230116778 392.50316400102577ZM1213.218797984347 344.3757925548835L1213.218797984347 350.76699830930977L1204.6668643058265 351.74501200126826L1173.2339591363707 428.3257585320627Q1172.1877119310197 430.98686555436825 1170.0042395024614 435.89967851862474Q1167.7980225694387 440.8124914828813 1164.795747980171 445.9754939962434Q1161.793473390903 451.11575200514136 1158.3590532168164 454.5729166836922L1158.3590532168164 454.5729166836922Q1155.4022676364768 457.52970226403176 1151.8313804356053 459.1673065854506Q1148.2832377391978 460.80491090686945 1144.1209934222584 460.80491090686945L1144.1209934222584 460.80491090686945Q1138.2984002794356 460.80491090686945 1135.2051476723113 457.96184784885065Q1132.134639569651 455.11878479083185 1132.134639569651 451.45691957210363L1132.134639569651 451.45691957210363Q1132.134639569651 445.99823850070754 1137.4113646053338 441.6085491391265L1137.4113646053338 441.6085491391265L1152.7639051186352 448.636601018549Q1155.4705011498693 445.93000498731504 1158.1998416855672 441.2901260766284Q1160.9291822212654 436.6502471659417 1163.1126546498238 431.6919451927569Q1165.3188715828464 426.7336432195721 1166.5243303194463 423.1400115142364L1166.5243303194463 423.1400115142364L1138.6850568553264 351.74501200126826L1129.6554885830585 350.76699830930977L1129.6554885830585 344.3757925548835L1165.864739689986 344.3757925548835L1165.864739689986 350.76699830930977L1158.0406301543183 351.2446329030569Q1155.4022676364768 351.4948224521626 1155.4022676364768 353.8829954208984L1155.4022676364768 353.8829954208984Q1155.4022676364768 354.54258605035875 1155.5614791677258 354.86100911285683L1155.5614791677258 354.86100911285683L1174.5986294042198 403.14759209024817L1194.022436216604 354.86100911285683Q1194.2726257657098 354.38337451910974 1194.2726257657098 353.81476190750595L1194.2726257657098 353.81476190750595Q1194.2726257657098 351.403844434306 1191.7934747791173 351.2446329030569L1191.7934747791173 351.2446329030569L1184.0375987568423 350.76699830930977L1184.0375987568423 344.3757925548835L1213.218797984347 344.3757925548835ZM1304.378771876662 416.90801729105914L1304.378771876662 423.29922304548546L1268.2150097786628 423.29922304548546L1268.2150097786628 416.90801729105914L1275.1065946313004 416.430382697312Q1276.539498412542 416.27117116606297 1277.5402566089645 415.2931574741045Q1278.541014805387 414.33788828661017 1278.541014805387 412.81400648751213L1278.541014805387 412.81400648751213L1278.541014805387 370.2135496261584Q1278.541014805387 362.4576736038831 1274.9473831000514 358.4091518092643Q1271.3537513947153 354.38337451910974 1262.779073211731 354.38337451910974L1262.779073211731 354.38337451910974Q1258.1619388055083 354.38337451910974 1253.5448043992858 355.70255577803044Q1248.9504144975274 357.02173703695115 1244.788170180588 359.09148694318884L1244.788170180588 359.09148694318884L1244.788170180588 412.81400648751213Q1244.788170180588 416.18019314820634 1248.245334859139 416.430382697312L1248.245334859139 416.430382697312L1255.1141752073122 416.90801729105914L1255.1141752073122 423.29922304548546L1218.0861219396752 423.29922304548546L1218.0861219396752 416.90801729105914L1226.0921875110562 416.430382697312Q1229.526607685143 416.18019314820634 1229.526607685143 412.81400648751213L1229.526607685143 412.81400648751213L1229.526607685143 355.9754898316002L1218.0861219396752 355.9754898316002L1218.0861219396752 350.60778677806076L1238.0785413636636 344.3757925548835L1244.788170180588 344.3757925548835L1244.788170180588 352.5410696575135Q1251.6797550332253 348.6062703852155 1258.9125074528251 345.4902732736269Q1266.145259872425 342.3742761620383 1271.8313859884627 342.3742761620383L1271.8313859884627 342.3742761620383Q1282.5440475910775 342.3742761620383 1288.1391956892585 349.06116047449854Q1293.7343437874397 355.7253002824946 1293.7343437874397 367.64342062170937L1293.7343437874397 367.64342062170937L1293.7343437874397 412.81400648751213Q1293.7343437874397 414.33788828661017 1294.735101983862 415.2931574741045Q1295.7358601802848 416.27117116606297 1297.168763961526 416.430382697312L1297.168763961526 416.430382697312L1304.378771876662 416.90801729105914ZM1378.4121339074713 407.85570451432733L1378.4121339074713 407.85570451432733L1378.4121339074713 417.2264403535573Q1372.885219322683 420.18322593389684 1365.9708899655811 422.7306104338817Q1359.0565606084795 425.30073943833065 1350.7548164790646 425.30073943833065L1350.7548164790646 425.30073943833065Q1339.314330733597 425.30073943833065 1330.8761195773973 419.9330363847912Q1322.4379084211973 414.5880778357158 1317.843518519439 405.3538090232708Q1313.2491286176805 396.11954021082573 1313.2491286176805 384.36063140285995L1313.2491286176805 384.36063140285995Q1313.2491286176805 370.6002062020489 1318.730554193541 361.25221486728316Q1324.189235264937 351.90422353251734 1333.1960590327403 347.12787759504573Q1342.1801382960798 342.3742761620383 1352.6653548540532 342.3742761620383L1352.6653548540532 342.3742761620383Q1363.4689944745246 342.3742761620383 1370.7699804075169 346.58200948790613Q1378.0937108449734 350.76699830930977 1378.0937108449734 358.77306388069076L1378.0937108449734 358.77306388069076Q1378.0937108449734 363.5721543226265 1375.0914362557055 366.0058163002906Q1372.0891616664376 368.43947827795466 1368.4272964477095 368.43947827795466L1368.4272964477095 368.43947827795466Q1365.6979559120114 368.43947827795466 1363.6964395191662 367.52969809938867Q1361.694923126321 366.5971734163585 1360.1710413272228 365.6419042288642L1360.1710413272228 365.6419042288642L1360.1710413272228 351.403844434306Q1356.418198090638 349.26586101467586 1353.3022009790495 349.26586101467586L1353.3022009790495 349.26586101467586Q1346.0239595505213 349.26586101467586 1340.7927235237667 353.5418278539361Q1335.561487497012 357.8177946931964 1332.7639134479216 365.2552476529736Q1329.9663393988312 372.6927006127508 1329.9663393988312 382.19990347876563L1329.9663393988312 382.19990347876563Q1329.9663393988312 391.2294717510334 1332.991358492563 398.71241371973883Q1336.0391220907593 406.19535568844435 1342.0664157737592 410.58504505002537Q1348.1164539612232 414.9747344116064 1357.055044215634 414.9747344116064L1357.055044215634 414.9747344116064Q1362.7411703316718 414.9747344116064 1367.9269173494981 413.15517405447434Q1373.1354088717885 411.31286919287817 1378.4121339074713 407.85570451432733Z " fill="white" transform="matrix(0.634788387339939,0,0,0.6347883873399391,0,55.09552604016258)"/></g></svg>